<?xml version="1.0" standalone="no"?>
<!DOCTYPE svg PUBLIC "-//W3C//DTD SVG 20010904//EN"
 "http://www.w3.org/TR/2001/REC-SVG-20010904/DTD/svg10.dtd">
<svg version="1.0" xmlns="http://www.w3.org/2000/svg"
 width="306.000000pt" height="306.000000pt" viewBox="0 0 306.000000 306.000000"
 preserveAspectRatio="xMidYMid meet">
<metadata>
Created by potrace 1.11, written by Peter Selinger 2001-2013
</metadata>
<g transform="translate(0.000000,306.000000) scale(0.100000,-0.100000)"
fill="#000000" stroke="none">
<path d="M933 2562 l-593 -297 0 -202 c0 -112 2 -203 4 -203 2 0 20 7 39 15
53 22 162 19 217 -6 55 -25 105 -71 131 -121 l19 -38 263 0 262 0 35 47 c54
73 117 107 207 112 54 2 87 -2 120 -14 52 -20 117 -75 139 -117 l15 -28 278 0
279 0 26 44 c52 89 134 135 238 136 37 0 78 -4 92 -10 l26 -10 0 198 0 197
-595 298 c-327 163 -598 297 -603 296 -4 0 -274 -134 -599 -297z"/>
<path d="M409 1748 c-137 -79 -83 -288 75 -288 92 0 156 62 156 150 0 123
-127 199 -231 138z"/>
<path d="M2555 1756 c-103 -46 -124 -181 -40 -255 41 -36 72 -45 125 -38 77
10 130 74 130 155 0 43 -28 93 -71 125 -34 25 -105 31 -144 13z"/>
<path d="M1475 1736 c-85 -39 -119 -137 -74 -215 28 -50 64 -73 119 -79 93 -9
160 49 168 142 4 56 -18 101 -69 139 -34 25 -105 31 -144 13z"/>
<path d="M742 1496 c-16 -35 -78 -102 -116 -126 -54 -33 -129 -44 -198 -30
-32 7 -61 17 -64 21 -20 33 -24 -17 -24 -276 l0 -285 450 -225 c247 -124 454
-225 459 -225 6 0 19 19 29 43 26 57 65 102 118 133 l44 26 0 387 0 387 -39
22 c-50 28 -105 90 -122 136 l-13 36 -256 0 -257 0 -11 -24z"/>
<path d="M1796 1486 c-19 -45 -86 -117 -131 -142 l-35 -19 0 -387 0 -388 38
-19 c51 -26 105 -87 127 -144 l17 -46 459 230 459 229 0 276 0 276 -22 -5
c-91 -22 -170 -14 -228 21 -44 27 -91 76 -111 115 l-19 37 -270 0 -270 0 -14
-34z"/>
<path d="M1475 426 c-86 -38 -119 -139 -72 -220 31 -54 78 -78 145 -73 93 7
146 69 139 163 -4 61 -28 97 -83 124 -46 23 -86 25 -129 6z"/>
</g>
</svg>
